HIERARCHY
ROOT Hips
{
	OFFSET 0.000000 0.000000 0.000000
	CHANNELS 6 Xposition Yposition Zposition Xrotation Yrotation Zrotation
	JOINT LeftUpLeg_virtual
	{
		OFFSET 0.000000 0.000000 0.000000
		CHANNELS 3 Xrotation Yrotation Zrotation
		JOINT LeftUpLeg
		{
			OFFSET 11.394100 -6.187798 -0.413800
			CHANNELS 3 Xrotation Yrotation Zrotation
			JOINT LeftLeg
			{
				OFFSET 0.430247 -32.302673 3.732800
				CHANNELS 3 Xrotation Yrotation Zrotation
				JOINT LeftFoot
				{
					OFFSET -0.430247 -48.264931 -6.423300
					CHANNELS 3 Xrotation Yrotation Zrotation
					JOINT LeftToeBase
					{
						OFFSET 4.230900 -16.068199 23.438400
						CHANNELS 3 Xrotation Yrotation Zrotation
						JOINT LeftToe_End
						{
							OFFSET 4.510700 0.695400 19.974600
							CHANNELS 3 Xrotation Yrotation Zrotation
							End Site
							{
								OFFSET 0 0 0
							}
						}
					}
				}
			}
		}
	}
	JOINT RightUpLeg_virtual
	{
		OFFSET 0.000000 0.000000 0.000000
		CHANNELS 3 Xrotation Yrotation Zrotation
		JOINT RightUpLeg
		{
			OFFSET -11.333700 -6.187798 -0.413800
			CHANNELS 3 Xrotation Yrotation Zrotation
			JOINT RightLeg
			{
				OFFSET -0.430392 -32.302628 3.733000
				CHANNELS 3 Xrotation Yrotation Zrotation
				JOINT RightFoot
				{
					OFFSET 0.430392 -48.264973 -6.423500
					CHANNELS 3 Xrotation Yrotation Zrotation
					JOINT RightToeBase
					{
						OFFSET -4.230900 -16.068199 23.438400
						CHANNELS 3 Xrotation Yrotation Zrotation
						JOINT RightToe_End
						{
							OFFSET -4.510700 0.695400 19.974600
							CHANNELS 3 Xrotation Yrotation Zrotation
							End Site
							{
								OFFSET 0 0 0
							}
						}
					}
				}
			}
		}
	}
	JOINT Spine_virtual
	{
		OFFSET 0.000000 0.000000 0.000000
		CHANNELS 3 Xrotation Yrotation Zrotation
		JOINT Spine
		{
			OFFSET -0.002400 12.777504 0.315300
			CHANNELS 3 Xrotation Yrotation Zrotation
			JOINT Spine1
			{
				OFFSET -0.002067 5.816869 0.032633
				CHANNELS 3 Xrotation Yrotation Zrotation
				JOINT Spine1_split
				{
					OFFSET -0.002067 5.816869 0.032633
					CHANNELS 3 Xrotation Yrotation Zrotation
					JOINT Spine2
					{
						OFFSET -0.002067 5.816869 0.032633
						CHANNELS 3 Xrotation Yrotation Zrotation
						JOINT Neck_virtual
						{
							OFFSET 0.000000 0.000000 0.000000
							CHANNELS 3 Xrotation Yrotation Zrotation
							JOINT Neck
							{
								OFFSET -0.003700 21.199493 -0.826900
								CHANNELS 3 Xrotation Yrotation Zrotation
								JOINT Head
								{
									OFFSET 0.000000 20.442200 4.834800
									CHANNELS 3 Xrotation Yrotation Zrotation
									JOINT HeadTop_End
									{
										OFFSET 0.000000 34.668396 4.968400
										CHANNELS 3 Xrotation Yrotation Zrotation
										End Site
										{
											OFFSET 0 0 0
										}
									}
								}
							}
						}
						JOINT LeftShoulder_virtual
						{
							OFFSET 0.000000 0.000000 0.000000
							CHANNELS 3 Xrotation Yrotation Zrotation
							JOINT LeftShoulder
							{
								OFFSET 3.288150 8.794197 -1.372250
								CHANNELS 3 Xrotation Yrotation Zrotation
								JOINT LeftShoulder_split
								{
									OFFSET 3.288150 8.794197 -1.372250
									CHANNELS 3 Xrotation Yrotation Zrotation
									JOINT LeftArm
									{
										OFFSET 11.953299 -2.279007 -0.146200
										CHANNELS 3 Xrotation Yrotation Zrotation
										JOINT LeftForeArm
										{
											OFFSET 18.448900 0.000000 0.000000
											CHANNELS 3 Xrotation Yrotation Zrotation
											JOINT LeftHand
											{
												OFFSET 29.527798 0.000000 0.000000
												CHANNELS 3 Xrotation Yrotation Zrotation
												End Site
												{
													OFFSET 0 0 0
												}
											}
										}
									}
								}
							}
						}
						JOINT RightShoulder_virtual
						{
							OFFSET 0.000000 0.000000 0.000000
							CHANNELS 3 Xrotation Yrotation Zrotation
							JOINT RightShoulder
							{
								OFFSET -3.249400 8.794197 -1.372250
								CHANNELS 3 Xrotation Yrotation Zrotation
								JOINT RightShoulder_split
								{
									OFFSET -3.249400 8.794197 -1.372250
									CHANNELS 3 Xrotation Yrotation Zrotation
									JOINT RightArm
									{
										OFFSET -11.953299 -2.279007 -0.146200
										CHANNELS 3 Xrotation Yrotation Zrotation
										JOINT RightForeArm
										{
											OFFSET -18.448900 0.000000 0.000000
											CHANNELS 3 Xrotation Yrotation Zrotation
											JOINT RightHand
											{
												OFFSET -29.527802 0.000000 0.000000
												CHANNELS 3 Xrotation Yrotation Zrotation
												End Site
												{
													OFFSET 0 0 0
												}
											}
										}
									}
								}
							}
						}
					}
				}
			}
		}
	}
}
MOTION
Frames: 9
Frame Time: 0.03333333
2.021000 235.262161 -19.532658 0.000000 0.000000 0.000000 3.137501 -12.123979 2.166783 -80.674902 16.642147 24.092719 86.928767 -0.184079 5.861194 -10.125448 4.040823 -12.720877 1.742779 -3.301971 12.432922 0.000000 0.000000 0.000000 6.327850 -15.964874 1.516572 -104.742385 9.732547 -7.129224 109.024791 -3.858203 -0.362353 7.020539 -11.698839 26.359691 2.049797 7.489223 8.357407 0.000000 0.000000 0.000000 7.279763 -17.231293 1.304747 5.505783 -1.510546 1.041478 10.773755 -1.349694 -0.400476 1.108288 -1.286433 2.034224 0.000000 0.000000 0.000000 13.175762 -1.379509 -0.173716 -22.002823 0.747281 -1.759416 0.731267 -4.516749 1.655600 0.000000 0.000000 0.000000 12.837749 -1.427943 -0.858186 1.003642 -14.084649 27.613999 0.561104 8.810322 -7.743785 -59.213806 -21.450670 -11.482443 29.883061 -70.806864 54.057870 0.000000 0.000000 0.000000 12.565572 -0.882896 -0.449746 2.720031 9.603714 -7.218997 8.190625 9.287207 0.586272 -75.523355 36.087178 23.165481 -13.367330 76.326613 -26.932795 0.000000 0.000000 0.000000 
2.393581 235.965103 -20.330555 0.000000 0.000000 0.000000 1.448045 -13.082542 2.684737 -85.494974 12.571901 22.632033 88.012725 -1.642688 2.887811 -10.191607 6.201217 -11.369917 4.258202 -4.291952 11.567296 0.000000 0.000000 0.000000 4.978828 -16.074616 2.339207 -107.660761 6.807128 -9.600447 103.506647 -2.083604 -1.176096 10.332970 -9.781048 26.852510 -0.314771 5.919723 4.234558 0.000000 0.000000 0.000000 6.201784 -17.934721 1.310012 6.322738 -1.496653 1.082518 13.885921 -0.995477 -0.462690 1.352585 -0.983728 2.181512 0.000000 0.000000 0.000000 16.216339 -0.882827 -0.377380 -23.575691 1.999614 -1.572165 3.280831 -5.434378 3.479063 0.000000 0.000000 0.000000 15.793865 -1.006152 -1.227727 2.544166 -16.766923 30.369210 -0.011963 5.310519 -6.857685 -59.235246 -17.264147 -9.138458 16.042552 -66.045716 45.598316 0.000000 0.000000 0.000000 15.571339 -0.351428 -0.657571 3.483037 10.347401 -9.169776 9.338097 9.501252 -0.747151 -83.834172 36.800684 26.862147 -32.153894 76.665629 -9.870417 0.000000 0.000000 0.000000 
2.445427 236.634369 -20.273617 0.000000 0.000000 0.000000 0.127985 -12.834200 3.275396 -87.695797 8.736478 19.937109 82.121769 -3.447200 1.339613 -8.976918 7.689741 -9.492638 5.981268 -5.104398 9.554032 0.000000 0.000000 0.000000 4.068681 -15.401407 3.192134 -107.423071 2.853536 -11.859796 92.659214 -0.712010 -1.837258 13.819707 -6.705516 25.330959 -2.789878 5.530656 1.252116 0.000000 0.000000 0.000000 5.191408 -17.914357 1.333304 6.448403 -1.138035 1.277600 16.796379 -0.534040 -0.616189 1.410459 -1.293331 2.169994 0.000000 0.000000 0.000000 19.033663 -0.237805 -0.647148 -24.001783 3.194834 -1.658377 6.630946 -6.488396 5.401305 0.000000 0.000000 0.000000 18.638721 -0.557872 -1.516273 3.838048 -18.496463 32.153385 -1.183561 1.560708 -5.212280 -62.711997 -15.099537 -7.752511 6.460349 -60.068536 41.044936 0.000000 0.000000 0.000000 18.272230 0.247312 -0.832567 4.613861 11.815570 -11.563512 10.366746 9.687573 -1.950895 -89.946700 38.348213 27.674048 -39.762981 71.658930 -3.522805 0.000000 0.000000 0.000000 
2.140719 236.899170 -19.539219 0.000000 0.000000 0.000000 -1.094786 -11.459573 3.799078 -87.404046 6.041281 16.730501 70.245934 -5.516941 0.791834 -7.059793 8.538767 -7.075070 5.967561 -5.780352 6.746594 0.000000 0.000000 0.000000 2.930130 -15.101456 3.832357 -105.055099 -1.677913 -13.722874 77.416014 -0.066657 -1.937224 17.387785 -3.788625 21.484879 -5.122591 6.136319 0.168378 0.000000 0.000000 0.000000 4.096727 -17.388284 1.427312 6.197172 -0.656967 1.543507 19.273973 -0.088609 -0.782685 0.965235 -1.165982 1.686716 0.000000 0.000000 0.000000 21.292288 0.416345 -0.902972 -23.189732 4.391608 -2.077466 10.326636 -7.490045 7.123536 0.000000 0.000000 0.000000 21.099549 -0.127934 -1.685814 4.639466 -18.967068 33.132493 -2.113426 -1.773853 -3.246337 -67.944673 -15.096875 -6.455998 -1.641369 -52.888764 37.516696 0.000000 0.000000 0.000000 20.399632 0.738717 -0.908633 6.219387 13.468570 -14.776691 10.723599 9.267627 -2.677978 -91.573938 40.564360 24.417354 -39.337460 63.214562 -4.847669 0.000000 0.000000 0.000000 
1.443353 235.856491 -18.451313 0.000000 0.000000 0.000000 -2.703913 -9.812281 4.236333 -85.502842 5.323464 14.160227 55.990824 -7.043859 0.581039 -6.393053 9.175932 -2.369500 4.143041 -6.338350 3.265186 0.000000 0.000000 0.000000 1.414261 -14.447665 4.100159 -101.647381 -6.113086 -15.148834 62.206501 0.419019 -1.967463 20.464741 -1.290712 16.908287 -9.518349 7.171310 0.946711 0.000000 0.000000 0.000000 2.393257 -16.367295 1.719459 5.952489 -0.190590 1.717749 21.109962 0.294705 -0.875409 0.419167 -1.076121 1.063173 0.000000 0.000000 0.000000 22.729579 0.969475 -1.065962 -21.268658 5.368179 -2.832438 13.899303 -8.215906 8.427668 0.000000 0.000000 0.000000 22.992070 0.229511 -1.675065 4.977161 -18.168433 33.746483 -2.131679 -3.578461 -1.805804 -73.092689 -17.133772 -5.540953 -9.892065 -44.521977 33.204422 0.000000 0.000000 0.000000 21.797517 1.055172 -0.877659 8.272082 14.973556 -18.705721 10.560580 8.210764 -2.621543 -88.183432 41.571513 16.970942 -38.325161 54.500272 -6.387741 0.000000 0.000000 0.000000 
0.583747 232.890060 -17.055149 0.000000 0.000000 0.000000 -4.957367 -8.809721 4.525536 -83.019822 6.460316 12.810840 44.059768 -8.341976 0.880625 -7.302397 9.062415 3.784577 -0.669797 -6.563971 -0.034482 0.000000 0.000000 0.000000 -0.845626 -13.487678 4.045970 -98.277440 -9.874924 -16.373041 52.370547 1.003347 -2.047716 22.524022 0.759219 12.628383 -17.430843 8.019773 3.061484 0.000000 0.000000 0.000000 -0.102564 -15.546800 2.186353 6.093590 0.114463 1.690050 22.206668 0.605360 -0.873026 0.062998 -0.897483 0.625628 0.000000 0.000000 0.000000 23.422119 1.329007 -1.110709 -18.587426 5.984969 -3.687382 16.830426 -8.662611 9.187731 0.000000 0.000000 0.000000 24.175366 0.488584 -1.519219 4.883916 -16.482715 33.977524 -1.517886 -4.074337 -1.286338 -75.895997 -19.499872 -4.673644 -17.956286 -36.624441 27.982068 0.000000 0.000000 0.000000 22.452606 1.180067 -0.721100 10.557921 15.882693 -23.409591 9.801280 7.442680 -1.812787 -81.423662 38.908371 7.285541 -38.556213 49.167735 -5.912352 0.000000 0.000000 0.000000 
-0.354220 228.232010 -15.570984 0.000000 0.000000 0.000000 -8.058859 -8.504855 4.604672 -81.046540 9.477886 13.413088 37.934854 -9.853348 1.498503 -9.462460 7.497618 9.795783 -8.239669 -6.381290 -2.358818 0.000000 0.000000 0.000000 -4.034541 -12.292349 3.810598 -96.443337 -12.530495 -17.833154 51.107331 1.633473 -2.196948 22.497139 2.007650 9.188918 -27.642624 8.029236 5.854768 0.000000 0.000000 0.000000 -3.443981 -15.225219 2.564597 6.628903 0.236825 1.426615 22.570813 0.856803 -0.773257 0.111998 -0.659086 0.421645 0.000000 0.000000 0.000000 23.483760 1.540358 -1.085408 -15.587376 6.225836 -4.435185 18.712278 -8.644186 9.314380 0.000000 0.000000 0.000000 24.621753 0.675335 -1.292393 4.664720 -14.640575 34.311039 -0.215882 -3.510442 -1.371093 -75.871046 -21.369183 -3.578578 -25.687805 -29.873110 21.753601 0.000000 0.000000 0.000000 22.512312 1.197719 -0.534238 12.793018 15.974849 -28.775864 8.793340 7.097350 -0.668143 -74.800065 32.509296 -1.653029 -40.353789 47.790683 -3.146166 0.000000 0.000000 0.000000 
-1.191216 222.679932 -14.052288 0.000000 0.000000 0.000000 -11.699090 -8.771624 4.568878 -80.046457 13.783415 15.833220 38.622923 -11.489642 2.264650 -12.423080 4.587800 14.685760 -17.294249 -6.044367 -3.063213 0.000000 0.000000 0.000000 -7.942767 -10.538380 3.533690 -96.741331 -14.220274 -19.815118 57.731593 2.163589 -2.428282 19.466345 2.584814 6.176254 -36.578368 7.310182 8.472435 0.000000 0.000000 0.000000 -7.102122 -15.233931 2.806985 7.425159 0.248756 1.064643 22.320705 1.079200 -0.616926 0.472510 -0.809127 0.418043 0.000000 0.000000 0.000000 23.213096 1.627683 -1.049515 -12.678167 6.012204 -4.740005 19.307603 -8.170367 8.866170 0.000000 0.000000 0.000000 24.475221 0.783005 -1.017158 4.598358 -13.254501 35.030999 1.540915 -2.480567 -1.761729 -73.591989 -22.163776 -2.131940 -32.269085 -24.473398 15.035686 0.000000 0.000000 0.000000 22.156878 1.181562 -0.371592 14.702134 15.499619 -34.412518 8.209857 7.490084 0.327847 -70.942655 23.909419 -7.628961 -43.119862 48.125694 0.911349 0.000000 0.000000 0.000000 
-1.828739 217.228989 -12.383656 0.000000 0.000000 0.000000 -15.552873 -8.905655 4.308252 -80.368172 18.149822 19.300151 45.074122 -13.284417 2.897641 -15.618237 1.009018 17.632615 -25.093181 -5.987429 -2.076901 0.000000 0.000000 0.000000 -12.102198 -9.087306 3.286972 -99.067215 -14.942215 -22.183609 69.283383 2.280843 -2.510614 13.943016 2.565930 2.946218 -41.728761 6.515535 10.538665 0.000000 0.000000 0.000000 -10.641829 -15.476667 2.744757 8.241285 0.243028 0.786371 21.698691 1.277780 -0.451018 0.800510 -1.255964 0.568742 0.000000 0.000000 0.000000 22.948918 1.653824 -1.073995 -10.223174 5.544456 -4.529595 18.401172 -7.144433 7.917027 0.000000 0.000000 0.000000 23.997651 0.864845 -0.773497 4.801336 -12.609055 36.150777 3.387279 -1.395437 -2.204185 -69.930824 -21.617434 -0.534614 -36.913494 -21.056870 8.702041 0.000000 0.000000 0.000000 21.636724 1.170850 -0.265566 16.083928 14.661343 -39.926451 8.050466 8.268893 1.115643 -69.283895 16.148678 -10.744951 -45.318572 47.406857 4.368106 0.000000 0.000000 0.000000 
